<?xml version="1.0" encoding="utf-8"?>
<!-- Generator: Adobe Illustrator 25.0.1, SVG Export Plug-In . SVG Version: 6.00 Build 0)  -->
<svg version="1.1" id="Laag_1" xmlns="http://www.w3.org/2000/svg" xmlns:xlink="http://www.w3.org/1999/xlink" x="0px" y="0px"
	 viewBox="0 0 1078.3 621.6" style="enable-background:new 0 0 1078.3 621.6;" xml:space="preserve">
<style type="text/css">
	.st0{enable-background:new    ;}
	.st1{fill:#C6C6C6;}
	.st2{fill:none;stroke:#C6C6C6;stroke-width:8;stroke-miterlimit:10;}
</style>
<g class="st0">
	<path class="st1" d="M168.7,460.1l-0.9,7.2l-19.3-0.5h-14l-0.5,71.8l0.4,35.5h-9.4l0.5-34.9l-0.5-72.4h-14l-19.6,0.5l-0.7-1.1
		l0.9-7.2h76.3L168.7,460.1z"/>
	<path class="st1" d="M288.9,538.6l0.2,35.5h-9.2l0.4-34.9v-19.3h-67.5v18.7l0.4,35.5h-9.4l0.4-34.9l-0.4-80.1h9.4l-0.2,52.7h67.1
		l-0.2-52.7h9.4L288.9,538.6z"/>
	<path class="st1" d="M399.8,566.7l-0.9,7.4h-60.7l0.5-34.9l-0.5-80.1h60.5l0.7,1.1l-1.1,7.4l-26.8-0.4l-23.8,0.2l-0.4,43.4
		l22.5,0.2l19.3-0.2l0.7,0.9L389,519l-41.6-0.2l-0.2,19.8l0.4,27.4l23.2,0.2l28.3-0.5L399.8,566.7z"/>
	<path class="st1" d="M555.4,472.4c8.7,9.4,13,22.8,13,40.3c0,20-4.6,35.4-13.9,46.2c-9.2,10.7-22.5,16.1-39.8,16.1
		c-4.4,0-10.1-0.1-17-0.3c-6.9-0.2-13.2-0.4-19-0.6l0.5-34.9l-0.5-80.1l39.1-0.7C534.2,458.3,546.7,463,555.4,472.4z M547.9,553.6
		c7.4-9,11.1-22.1,11.1-39.2c0-15.8-3.5-27.8-10.6-35.9c-7.1-8.1-17.4-12.2-31-12.2c-3.4,0-7.9,0.1-13.5,0.3
		c-5.6,0.2-10.8,0.4-15.5,0.6l-0.5,71.5l0.4,27.4c4.9,0.2,10,0.5,15.2,0.7c5.2,0.2,9.5,0.4,12.7,0.4
		C529.9,567.1,540.5,562.6,547.9,553.6z"/>
</g>
<g class="st0">
	<path class="st1" d="M677.7,571.9v1.3c-1.9,1-4.6,1.7-8.1,2.3l-1.4-0.7c-11.6-16.7-21.5-31.9-29.5-45.7H616v9.5l0.4,35.5H607
		l0.5-34.9l-0.5-80.1l30.6-0.2c10.9,0,19.3,2.8,25.2,8.3c5.9,5.5,8.8,13.5,8.8,23.9c0,8.4-2.2,15.7-6.5,21.9
		c-4.3,6.2-10.5,10.8-18.5,14C655.6,541.4,666,556.4,677.7,571.9z M616.2,520.8l23.4,0.4c7.3-2,12.9-5.5,16.7-10.5
		c3.8-5,5.8-11.3,5.8-19c0-8-2.2-14.1-6.6-18.3c-4.4-4.1-10.7-6.3-19-6.6l-20,0.4L616.2,520.8z"/>
</g>
<g class="st0">
	<path class="st1" d="M791.1,517.7v13.9c0.2,13.8-3.3,24.5-10.6,32c-7.3,7.6-17.8,11.3-31.3,11.3c-13.2,0-23.3-3.7-30.3-11
		c-7-7.3-10.5-17.9-10.3-31.7v-73.3h9.2l-0.4,72.4c-0.1,11.5,2.6,20.3,8.1,26.3c5.5,6,13.6,9,24.3,9c10.7,0,18.8-2.9,24.4-8.8
		c5.6-5.9,8.3-14.4,8.2-25.6l-0.4-73.3h9.4L791.1,517.7z"/>
	<path class="st1" d="M845.3,538.6l0.4,35.5h-9.4l0.5-34.9l-0.5-80.1h9.5L845.3,538.6z"/>
	<path class="st1" d="M971.4,472.4c8.7,9.4,13,22.8,13,40.3c0,20-4.6,35.4-13.9,46.2c-9.2,10.7-22.5,16.1-39.8,16.1
		c-4.4,0-10.1-0.1-17-0.3c-6.9-0.2-13.2-0.4-19-0.6l0.5-34.9l-0.5-80.1l39.1-0.7C950.2,458.3,962.7,463,971.4,472.4z M963.8,553.6
		c7.4-9,11.1-22.1,11.1-39.2c0-15.8-3.5-27.8-10.6-35.9c-7.1-8.1-17.4-12.2-31-12.2c-3.4,0-7.9,0.1-13.5,0.3
		c-5.6,0.2-10.8,0.4-15.5,0.6l-0.5,71.5l0.4,27.4c4.9,0.2,10,0.5,15.2,0.7c5.2,0.2,9.5,0.4,12.7,0.4
		C945.9,567.1,956.4,562.6,963.8,553.6z"/>
</g>
<polygon class="st2" points="539.1,367.1 382.5,270.2 539.1,74.4 695.8,270.2 "/>
<polyline class="st2" points="695.8,270.2 590,7.9 382.5,270.2 "/>
<polyline class="st2" points="382.5,270.2 488.3,7.9 695.8,270.2 "/>
</svg>
